<svg width="26" height="22" viewBox="0 0 26 22" fill="none" xmlns="http://www.w3.org/2000/svg">
<g clip-path="url(#clip0_9_23297)">
<path d="M0.0131836 2.4133V7.15097C0.0131836 8.59392 1.7714 9.36349 2.84587 8.35343L7.974 3.61575C9.0973 2.58164 8.36471 0.753906 6.82627 0.753906H1.69814C0.770194 0.753906 0.0131836 1.49943 0.0131836 2.4133Z" fill="white"/>
<path d="M24.2862 0.753906H19.158C17.644 0.753906 16.887 2.58164 18.0103 3.61575L23.1385 8.35343C24.2129 9.33944 25.9711 8.59392 25.9711 7.15097V2.4133C25.9711 1.49943 25.2141 0.753906 24.2862 0.753906Z" fill="white"/>
<path d="M14.1522 12.3215L23.1386 20.6425C24.2131 21.6285 25.9713 20.883 25.9713 19.4401V14.6543C25.9713 14.1974 25.7759 13.7645 25.4341 13.4518L14.1522 2.99047C13.4928 2.38924 12.4916 2.38924 11.8323 2.99047L0.550416 13.4518C0.208541 13.7645 0.0131836 14.1974 0.0131836 14.6543V19.4401C0.0131836 20.883 1.7714 21.6526 2.84587 20.6425L11.8323 12.3215C12.4916 11.7203 13.4928 11.7203 14.1522 12.3215Z" fill="white"/>
</g>
<defs>
<clipPath id="clip0_9_23297">
<rect width="25.9581" height="20.3455" fill="white" transform="translate(0.0131836 0.753906)"/>
</clipPath>
</defs>
</svg>
